Coordinates
version=1
nRows=8
nColumns=40
inDegrees=yes

Units are S.I. units (second, meters, Newtons, ...)
Angles are in degrees.

endheader
time	pelvis_tilt	pelvis_list	pelvis_rotation	pelvis_tx	pelvis_ty	pelvis_tz	hip_flexion_r	hip_adduction_r	hip_rotation_r	knee_angle_r	knee_angle_r_beta	ankle_angle_r	subtalar_angle_r	mtp_angle_r	hip_flexion_l	hip_adduction_l	hip_rotation_l	knee_angle_l	knee_angle_l_beta	ankle_angle_l	subtalar_angle_l	mtp_angle_l	lumbar_extension	lumbar_bending	lumbar_rotation	arm_flex_r	arm_add_r	arm_rot_r	elbow_flex_r	pro_sup_r	wrist_flex_r	wrist_dev_r	arm_flex_l	arm_add_l	arm_rot_l	elbow_flex_l	pro_sup_l	wrist_flex_l	wrist_dev_l
     44.25250000	     -3.72844956	     -3.70108456	      5.81353260	      0.97786801	      0.92323408	      0.42267318	      3.04380376	     -2.32533413	    -14.45200099	     32.49505213	     32.49505213	     14.20672248	     -5.73427517	     -9.96775847	     24.96761692	     -1.96659657	      0.47075937	     26.79580208	     26.79580208	      9.35653847	    -12.96290442	      4.30121737	     -6.31645544	      3.92936848	      3.78635542	     28.83910941	    -15.74889580	     -5.16505743	     97.46961930	     44.70263760	      0.00000000	      0.00000000	     -0.49029954	     -8.23144919	      9.71457183	     25.91631873	     44.51735755	      0.00000000	      0.00000000
     44.26485714	     -3.80532888	     -3.78427586	      5.55681135	      0.97699995	      0.92382719	      0.42040952	      4.70095991	     -2.87050646	    -14.01309451	     35.94174142	     35.94174142	     12.48672059	     -7.33097099	    -11.22579079	     24.47555080	     -2.11729638	     -0.06309905	     26.68104852	     26.68104852	      9.90655460	    -12.36859939	      3.96947036	     -6.20189163	      4.06818654	      3.90571129	     27.14829416	    -15.68574154	     -5.34288782	     95.01588930	     44.78599185	      0.00000000	      0.00000000	      0.49838725	     -8.38806425	      9.45420517	     26.60866199	     44.58873855	      0.00000000	      0.00000000
     44.27721429	     -3.69766554	     -3.78043129	      5.23508943	      0.97613686	      0.92455307	      0.41855903	      6.22567006	     -3.37603479	    -13.33403215	     39.32149760	     39.32149760	     10.07113891	     -9.62755128	    -13.72807870	     23.81812528	     -2.29616434	     -0.81080370	     26.68959349	     26.68959349	     10.49171917	    -11.45364324	      3.45851846	     -6.27235958	      4.07667554	      3.53025140	     26.01128877	    -14.74288454	     -5.35792334	     91.36186596	     44.91630430	      0.00000000	      0.00000000	      1.17250066	     -8.71633366	      8.70858409	     27.84526760	     44.75597214	      0.00000000	      0.00000000
     44.28957143	     -3.72062094	     -3.65418920	      4.86503217	      0.97507766	      0.92499921	      0.41675122	      8.13138688	     -4.17031709	    -12.89985203	     43.13694610	     43.13694610	      8.52536969	    -10.81397639	    -13.80761001	     23.19341344	     -2.26573757	     -1.42613881	     26.50537152	     26.50537152	     10.95509869	    -11.02483956	      3.16498602	     -6.32055147	      3.94153381	      3.66643780	     24.10352303	    -14.66689078	     -4.99458820	     89.74228036	     44.95130883	      0.00000000	      0.00000000	      2.25982452	     -8.99016697	      8.48162169	     28.55432809	     44.81364834	      0.00000000	      0.00000000
     44.30192857	     -3.76992310	     -3.53198029	      4.44995724	      0.97387713	      0.92535088	      0.41518046	     10.16033860	     -4.84458385	    -12.28023155	     46.89096856	     46.89096856	      6.99942462	    -12.26644636	    -13.39987845	     22.61865578	     -2.28759451	     -2.16785594	     26.34816928	     26.34816928	     11.39681968	    -10.40415007	      2.78788399	     -6.32059166	      3.85272863	      3.88501750	     22.26095565	    -14.56026166	     -4.73353498	     87.60529869	     45.00613130	      0.00000000	      0.00000000	      3.38685419	     -9.29256446	      8.23157201	     29.41444664	     44.87338366	      0.00000000	      0.00000000
     44.31428571	     -3.77746772	     -3.64116038	      4.02822564	      0.97263142	      0.92570912	      0.41413706	     12.22107997	     -5.04585247	    -11.51808289	     50.51259256	     50.51259256	      6.03439811	    -13.75474718	    -11.02619807	     22.09201976	     -2.69659152	     -3.18566716	     26.32810559	     26.32810559	     11.96624374	     -9.11489946	      1.96049412	     -6.26610400	      3.93704162	      3.78462055	     21.22429276	    -14.02707285	     -4.54589892	     83.28380049	     45.14063497	      0.00000000	      0.00000000	      4.06931702	     -9.71633953	      7.63379632	     31.04845490	     44.98655451	      0.00000000	      0.00000000
     44.32664286	     -3.84624311	     -3.41012573	      3.60112970	      0.97120919	      0.92605128	      0.41291460	     14.32447897	     -5.77908313	    -11.03956600	     53.93147462	     53.93147462	      4.91311570	    -14.71968115	    -10.21619540	     21.44201326	     -2.57419379	     -3.89866372	     25.97751904	     25.97751904	     12.35224078	     -8.66494371	      1.71202611	     -6.32017375	      3.64006202	      3.73261945	     19.42658380	    -13.73752253	     -4.07578729	     81.48600851	     45.17675527	      0.00000000	      0.00000000	      5.14908546	    -10.11752280	      7.37907528	     31.84392723	     45.04258761	      0.00000000	      0.00000000
     44.33900000	     -3.91648861	     -3.24223170	      3.18634514	      0.96968469	      0.92644599	      0.41190422	     16.44024717	     -6.29085750	    -10.45447103	     57.05708581	     57.05708581	      4.08276249	    -15.74337001	     -8.92125087	     20.83442152	     -2.55127300	     -4.67875287	     25.66313093	     25.66313093	     12.69647472	     -7.97383486	      1.37554179	     -6.34647174	      3.44813159	      3.90271235	     17.64027926	    -13.61688015	     -3.65035929	     78.97235539	     45.23761268	      0.00000000	      0.00000000	      6.30935029	    -10.48507893	      7.09980095	     32.81714069	     45.10243038	      0.00000000	      0.00000000
